<svg width="220" height="221" viewBox="0 0 220 221" fill="none" xmlns="http://www.w3.org/2000/svg">
<path d="M96.1283 56.4586L64.0706 3.35385C63.2111 1.27291 60.9765 4.30406e-08 58.57 4.30406e-08H6.88657C1.32159 4.30406e-08 -1.93575 6.29332 1.25713 10.8687L49.0859 79.4564C61.836 67.5086 78.0797 59.2643 96.1283 56.4586ZM110.009 69.0625C68.2174 69.0625 34.3763 103.054 34.3763 145.031C34.3763 187.008 68.2389 221 110.009 221C151.778 221 185.641 187.008 185.641 145.031C185.641 103.054 151.821 69.0625 110.009 69.0625ZM149.758 136.96L133.48 152.93L137.294 175.484C137.992 179.476 133.749 182.606 130.148 180.663L110.002 170.036L89.8543 180.642C86.2553 182.584 82.0117 179.455 82.7079 175.462L86.5217 152.909L70.2436 136.938C67.2935 134.068 68.9695 129.061 73.0089 128.456L95.5181 125.165L105.582 104.673C106.442 102.838 108.214 101.921 109.987 101.921C111.76 101.921 113.532 102.86 114.392 104.673L124.49 125.176L147 128.467C151.091 129.061 152.724 134.068 149.758 136.96ZM212.757 4.30406e-08H161.447C160.26 -0.000133121 159.092 0.308735 158.059 0.896502C157.026 1.48427 156.162 2.33089 155.551 3.35385L123.854 56.0572C141.903 58.8628 158.181 67.1158 170.91 79.0981L218.738 10.5104C221.953 6.29332 218.687 4.30406e-08 212.757 4.30406e-08Z" fill="#71124B" fill-opacity="0.13"/>
</svg>
